<?xml version="1.0" standalone="no"?>
<!DOCTYPE svg PUBLIC "-//W3C//DTD SVG 1.1//EN" "http://www.w3.org/Graphics/SVG/1.1/DTD/svg11.dtd" >
<svg xmlns="http://www.w3.org/2000/svg">
<metadata></metadata>
<defs>
<font id="pricedownregular" horiz-adv-x="1054" >
<font-face units-per-em="2048" ascent="1638" descent="-410" />
<missing-glyph horiz-adv-x="452" />
<glyph horiz-adv-x="2048" />
<glyph horiz-adv-x="2048" />
<glyph unicode="&#xd;" horiz-adv-x="452" />
<glyph unicode=" "  horiz-adv-x="452" />
<glyph unicode="&#x09;" horiz-adv-x="452" />
<glyph unicode="&#xa0;" horiz-adv-x="452" />
<glyph unicode="!" horiz-adv-x="526" d="M53 0v324h422v-324h-422zM53 406v892h422v-892h-422z" />
<glyph unicode="&#x22;" d="M53 811v487h422v-487h-422zM580 811v487h421v-487h-421z" />
<glyph unicode="$" horiz-adv-x="972" d="M27 1006q-14 195 112 323q115 117 293 144v124h143v-124q145 -16 236 -105q98 -96 98 -254q0 -127 -84 -217q-96 -102 -262 -102q-111 0 -194 57q-92 63 -93 162q0 104 63.5 169.5t147.5 65.5q193 0 183 -239h-127q0 57 -6 71q-10 27 -50 27q-55 2 -55 -84q0 -29 31 -55 q39 -33 100 -33q94 0 146 53q47 47 47 125q0 109 -76 170q-68 55 -172 55q-133 0 -229 -84q-109 -92 -99 -239q10 -139 113 -223q61 -53 233 -127q197 -86 271 -152q125 -113 137 -301q14 -195 -113 -324q-113 -117 -291 -141v-127h-145v125q-143 18 -233 104 q-100 98 -101 254q0 129 84 220q96 100 262 100q111 0 195 -55q92 -63 92 -164q0 -102 -62.5 -169t-148.5 -67q-193 0 -182 240h127q2 -55 6 -70q10 -29 49 -28q55 0 57 84q0 29 -32 55q-39 35 -101 35q-92 0 -145 -54q-45 -49 -45 -127q0 -109 71.5 -167t174.5 -58 q135 0 231 84q106 92 96 240q-10 139 -110 225q-63 51 -234 125q-197 86 -272 154q-123 111 -137 299z" />
<glyph unicode="&#x26;" horiz-adv-x="1126" d="M53 162v405q0 23 29 48.5t76 33.5q-104 14 -105 80v406q0 61 65.5 112t145.5 51h527q80 0 145 -51t65 -112v-324h107v-324h-107v-163h107v-324h-844q-141 0 -184 51q-27 31 -27 111zM475 324h105v163h-105v-163zM475 811h105v162h-105v-162z" />
<glyph unicode="'" horiz-adv-x="526" d="M53 811v487h422v-487h-422z" />
<glyph unicode="*" horiz-adv-x="1310" d="M25 492q0 61 151 61h72q47 -2 71 -2q154 0 154 65q0 53 -119 54q-27 0 -90 -4t-94 -4q-141 0 -141 69q0 47 55 129q74 106 139 107q63 0 154.5 -130t134.5 -130q20 0 38.5 14t18.5 35q0 35 -80.5 132t-80.5 138q0 76 223 76q221 2 221 -74q0 -41 -80 -138t-80 -134 q0 -20 18.5 -34.5t41.5 -14.5q45 0 137 129t155 129q66 0 136 -105q55 -86 55 -131q0 -63 -115 -63q-33 0 -107.5 6t-107.5 6q-115 0 -114 -62q-2 -72 153 -71q27 0 79 2t77 2q139 0 139 -60q0 -40 -59 -116q-76 -98 -142 -99q-66 0 -154.5 126t-131.5 126q-20 0 -40 -14 t-20 -35q0 -37 81 -135t81 -137q0 -76 -223 -76q-201 2 -201 78q0 39 70.5 134t70.5 132q0 20 -18 36.5t-41 16.5q-41 0 -127 -129t-154 -129t-147 105q-59 76 -59 119z" />
<glyph unicode="+" horiz-adv-x="948" d="M53 487v324h211v162h422v-162h211v-324h-211v-163h-422v163h-211z" />
<glyph unicode="," horiz-adv-x="526" d="M53 0v324h422v-406q0 -59 -66.5 -110.5t-144.5 -51.5h-211v162h211v82h-211z" />
<glyph unicode="-" horiz-adv-x="632" d="M53 487v324h527v-324h-527z" />
<glyph unicode="." horiz-adv-x="526" d="M53 0v324h422v-324h-422z" />
<glyph unicode="/" d="M53 0l527 1298h421l-526 -1298h-422z" />
<glyph unicode="0" d="M53 162v973q0 61 65.5 112t145.5 51h527q80 0 145 -51t65 -112v-973q0 -61 -65.5 -111.5t-144.5 -50.5h-527q-80 0 -145.5 50t-65.5 112zM475 324h105v649h-105v-649z" />
<glyph unicode="1" horiz-adv-x="526" d="M53 0v1298h422v-1298h-422z" />
<glyph unicode="2" d="M53 0v649q0 59 65.5 110.5t145.5 51.5h316v162h-105v-80h-422v242q0 61 65.5 112t145.5 51h527q80 0 145 -51t65 -112v-486q0 -61 -65.5 -111.5t-144.5 -50.5h-316v-163h105v82h421v-406h-948z" />
<glyph unicode="3" d="M53 162v244h422v-82h105v163h-527v324h527v162h-105v-80h-422v242q0 61 65.5 112t145.5 51h527q80 0 145 -51t65 -112v-406q0 -72 -104 -80q104 -8 104 -82v-405q0 -61 -65.5 -111.5t-144.5 -50.5h-527q-80 0 -145.5 50t-65.5 112z" />
<glyph unicode="4" horiz-adv-x="1122" d="M53 567v731h422v-405h105v405h421v-405h107v-326h-107v-567h-421v567h-527z" />
<glyph unicode="5" d="M53 162v244h422v-82h105v163h-527v811h948v-405h-421v80h-105v-162h316q80 0 145 -51t65 -111v-487q0 -61 -65.5 -111.5t-144.5 -50.5h-527q-80 0 -145.5 50t-65.5 112z" />
<glyph unicode="6" d="M53 162v973q0 61 65.5 112t145.5 51h527q80 0 145 -51t65 -112v-242h-421v80h-105v-162h316q80 0 145 -51t65 -111v-487q0 -61 -65.5 -111.5t-144.5 -50.5h-527q-80 0 -145.5 50t-65.5 112zM475 324h105v163h-105v-163z" />
<glyph unicode="7" d="M53 0l527 973h-527v325h948v-325l-526 -973h-422z" />
<glyph unicode="8" d="M53 162v405q0 72 105 82q-104 12 -105 80v406q0 61 65.5 112t145.5 51h527q80 0 145 -51t65 -112v-406q0 -68 -104 -80q104 -14 104 -82v-405q0 -61 -65.5 -111.5t-144.5 -50.5h-527q-80 0 -145.5 50t-65.5 112zM475 324h105v163h-105v-163zM475 811h105v162h-105v-162z " />
<glyph unicode="9" d="M53 162v244h422v-82h105v163h-316q-80 0 -145.5 50.5t-65.5 111.5v486q0 61 65.5 112t145.5 51h527q80 0 145 -51t65 -112v-973q0 -61 -65.5 -111.5t-144.5 -50.5h-527q-80 0 -145.5 50t-65.5 112zM475 811h105v162h-105v-162z" />
<glyph unicode=":" horiz-adv-x="526" d="M53 0v324h422v-324h-422zM53 406v323h422v-323h-422z" />
<glyph unicode=";" horiz-adv-x="526" d="M53 0v324h422v-406q0 -59 -66.5 -110.5t-144.5 -51.5h-211v162h211v82h-211zM53 406v323h422v-323h-422z" />
<glyph unicode="=" horiz-adv-x="632" d="M53 244v323h527v-323h-527zM53 649v324h527v-324h-527z" />
<glyph unicode="?" d="M53 0v324h422v-324h-422zM53 406v243q0 59 65.5 110.5t145.5 51.5h316v162h-105v-80h-422v242q0 61 65.5 112t145.5 51h527q80 0 145 -51t65 -112v-486q0 -61 -65.5 -111.5t-144.5 -50.5h-316v-81h-422z" />
<glyph unicode="A" d="M53 162v487q0 59 65.5 110.5t145.5 51.5h316v162h-105v-80h-422v242q0 61 65.5 112t145.5 51h527q80 0 145 -51t65 -112v-1135h-737q-80 0 -145.5 50t-65.5 112zM475 324h105v163h-105v-163z" />
<glyph unicode="B" d="M53 0v1622h422v-324h316q80 0 145 -51t65 -112v-973q0 -61 -65.5 -111.5t-144.5 -50.5h-738zM475 324h105v649h-105v-649z" />
<glyph unicode="C" d="M53 162v973q0 61 65.5 112t145.5 51h527q80 0 145 -51t65 -112v-406h-421v244h-105v-649h105v325h421v-487q0 -61 -65.5 -111.5t-144.5 -50.5h-527q-80 0 -145.5 50t-65.5 112z" />
<glyph unicode="D" d="M53 162v973q0 61 65.5 112t145.5 51h316v324h421v-1622h-737q-80 0 -145.5 50t-65.5 112zM475 324h105v649h-105v-649z" />
<glyph unicode="E" d="M53 162v973q0 61 65.5 112t145.5 51h527q80 0 145 -51t65 -112v-648h-526v-163h105v82h421v-244q0 -61 -65.5 -111.5t-144.5 -50.5h-527q-80 0 -145.5 50t-65.5 112zM475 811h105v162h-105v-162z" />
<glyph unicode="F" d="M53 0v1135q0 61 65.5 112t145.5 51h737v-325h-526v-80h526v-326h-526v-567h-422z" />
<glyph unicode="G" d="M53 -82h527v82h-316q-80 0 -145.5 50t-65.5 112v973q0 61 65.5 112t145.5 51h737v-1542q0 -59 -65.5 -110.5t-144.5 -51.5h-738v324zM475 324h105v649h-105v-649z" />
<glyph unicode="H" d="M53 0v1622h422v-324h316q80 0 145 -51t65 -112v-1135h-421v973h-105v-973h-422z" />
<glyph unicode="I" horiz-adv-x="526" d="M53 0v893h422v-893h-422zM53 973v325h422v-325h-422z" />
<glyph unicode="J" d="M53 162v487h422v-325h105v569h421v-731q0 -61 -65.5 -111.5t-144.5 -50.5h-527q-80 0 -145.5 50t-65.5 112zM580 973v325h421v-325h-421z" />
<glyph unicode="K" d="M53 0v1298h422v-174l105 174h464l-395 -649l395 -649h-464l-105 174v-174h-422z" />
<glyph unicode="L" horiz-adv-x="526" d="M53 -244v1542h422v-1380h633v-324h-844q-80 0 -145.5 51.5t-65.5 110.5z" />
<glyph unicode="M" horiz-adv-x="1581" d="M53 0v1298h422v-81q75 81 310 81h6q125 0 190 -98q55 66 141 86q53 12 195 12q80 0 145.5 -51t65.5 -112v-1135h-420v973h-107v-973h-421v973h-105v-973h-422z" />
<glyph unicode="N" d="M53 0v1298h422v-81q103 81 311 81h5q80 0 145 -51t65 -112v-1135h-421v973h-105v-973h-422z" />
<glyph unicode="O" d="M53 162v973q0 61 65.5 112t145.5 51h527q80 0 145 -51t65 -112v-973q0 -61 -65.5 -111.5t-144.5 -50.5h-527q-80 0 -145.5 50t-65.5 112zM475 324h105v649h-105v-649z" />
<glyph unicode="P" d="M53 0v1298h738q80 0 145 -51t65 -112v-486q0 -61 -65.5 -111.5t-144.5 -50.5h-316v-487h-422zM475 811h105v162h-105v-162z" />
<glyph unicode="Q" d="M53 162v973q0 61 65.5 112t145.5 51h527q80 0 145 -51t65 -112v-1217h527v-324h-737q-80 0 -145.5 51.5t-65.5 110.5v244h-316q-80 0 -145.5 50t-65.5 112zM475 324h105v649h-105v-649z" />
<glyph unicode="R" d="M53 0v1298h738q80 0 145 -51t65 -112v-406q-4 -23 -16 -39q-27 -39 -88 -41q88 -2 104 -82v-649h527v-324h-737q-80 0 -145.5 51.5t-65.5 110.5v731h-105v-487h-422zM475 811h105v162h-105v-162z" />
<glyph unicode="S" d="M53 162v244h422v-82h105v163h-316q-80 0 -145.5 50.5t-65.5 111.5v486q0 61 65.5 112t145.5 51h527q80 0 145 -51t65 -112v-242h-421v80h-105v-162h316q80 0 145 -51t65 -111v-487q0 -61 -65.5 -111.5t-144.5 -50.5h-527q-80 0 -145.5 50t-65.5 112z" />
<glyph unicode="T" horiz-adv-x="1124" d="M18 893v324h105v81h422v-81h526v-324h-526v-569h104v487h422v-649q0 -61 -65.5 -111.5t-145.5 -50.5h-526q-80 0 -145.5 50t-65.5 112v731h-105z" />
<glyph unicode="U" d="M53 162v1136h422v-974h105v974h421v-1136q0 -61 -65.5 -111.5t-144.5 -50.5h-527q-80 0 -145.5 50t-65.5 112z" />
<glyph unicode="V" horiz-adv-x="1107" d="M35 1298h422l106 -731l105 731h422l-211 -1298h-633z" />
<glyph unicode="W" horiz-adv-x="1732" d="M27 1298h422l106 -731l104 731h422l105 -731l106 731h422l-211 -1298h-528l-105 649l-106 -649h-526z" />
<glyph unicode="X" d="M53 0l285 649l-285 649h379l94 -217l97 217h378l-284 -649l284 -649h-378l-97 217l-94 -217h-379z" />
<glyph unicode="Y" d="M53 -82h527v82h-316q-80 0 -145.5 50t-65.5 112v1136h422v-974h105v974h421v-1542q0 -59 -65.5 -110.5t-144.5 -51.5h-738v324z" />
<glyph unicode="Z" d="M53 0v324l443 649h-443v325h948v-325l-442 -649h442v-324h-948z" />
<glyph unicode="\" d="M53 1298h422l526 -1298h-421z" />
<glyph unicode="_" horiz-adv-x="1370" d="M-53 -324h1476v-163h-1476v163z" />
<glyph unicode="a" d="M53 162v487q0 59 65.5 110.5t145.5 51.5h316v162h-105v-80h-422v242q0 61 65.5 112t145.5 51h527q80 0 145 -51t65 -112v-1135h-737q-80 0 -145.5 50t-65.5 112zM475 324h105v163h-105v-163z" />
<glyph unicode="b" d="M53 0v1622h422v-324h316q80 0 145 -51t65 -112v-973q0 -61 -65.5 -111.5t-144.5 -50.5h-738zM475 324h105v649h-105v-649z" />
<glyph unicode="c" d="M53 162v973q0 61 65.5 112t145.5 51h527q80 0 145 -51t65 -112v-406h-421v244h-105v-649h105v325h421v-487q0 -61 -65.5 -111.5t-144.5 -50.5h-527q-80 0 -145.5 50t-65.5 112z" />
<glyph unicode="d" d="M53 162v973q0 61 65.5 112t145.5 51h316v324h421v-1622h-737q-80 0 -145.5 50t-65.5 112zM475 324h105v649h-105v-649z" />
<glyph unicode="e" d="M53 162v973q0 61 65.5 112t145.5 51h527q80 0 145 -51t65 -112v-648h-526v-163h105v82h421v-244q0 -61 -65.5 -111.5t-144.5 -50.5h-527q-80 0 -145.5 50t-65.5 112zM475 811h105v162h-105v-162z" />
<glyph unicode="f" d="M53 0v1135q0 61 65.5 112t145.5 51h737v-325h-526v-80h526v-326h-526v-567h-422z" />
<glyph unicode="g" d="M53 -82h527v82h-316q-80 0 -145.5 50t-65.5 112v973q0 61 65.5 112t145.5 51h737v-1542q0 -59 -65.5 -110.5t-144.5 -51.5h-738v324zM475 324h105v649h-105v-649z" />
<glyph unicode="h" d="M53 0v1622h422v-324h316q80 0 145 -51t65 -112v-1135h-421v973h-105v-973h-422z" />
<glyph unicode="i" horiz-adv-x="526" d="M53 0v893h422v-893h-422zM53 973v325h422v-325h-422z" />
<glyph unicode="j" d="M53 162v487h422v-325h105v569h421v-731q0 -61 -65.5 -111.5t-144.5 -50.5h-527q-80 0 -145.5 50t-65.5 112zM580 973v325h421v-325h-421z" />
<glyph unicode="k" d="M53 0v1298h422v-174l105 174h464l-395 -649l395 -649h-464l-105 174v-174h-422z" />
<glyph unicode="l" horiz-adv-x="526" d="M53 -244v1542h422v-1380h631v-324h-842q-80 0 -145.5 51.5t-65.5 110.5z" />
<glyph unicode="m" horiz-adv-x="1581" d="M53 0v1298h422v-81q75 81 310 81h6q125 0 190 -98q55 66 141 86q53 12 195 12q80 0 145.5 -51t65.5 -112v-1135h-422v973h-105v-973h-421v973h-105v-973h-422z" />
<glyph unicode="n" d="M53 0v1298h422v-81q103 81 311 81h5q80 0 145 -51t65 -112v-1135h-421v973h-105v-973h-422z" />
<glyph unicode="o" d="M53 162v973q0 61 65.5 112t145.5 51h527q80 0 145 -51t65 -112v-973q0 -61 -65.5 -111.5t-144.5 -50.5h-527q-80 0 -145.5 50t-65.5 112zM475 324h105v649h-105v-649z" />
<glyph unicode="p" d="M53 0v1298h738q80 0 145 -51t65 -112v-486q0 -61 -65.5 -111.5t-144.5 -50.5h-316v-487h-422zM475 811h105v162h-105v-162z" />
<glyph unicode="q" d="M53 162v973q0 61 65.5 112t145.5 51h527q80 0 145 -51t65 -112v-1217h527v-324h-737q-80 0 -145.5 51.5t-65.5 110.5v244h-316q-80 0 -145.5 50t-65.5 112zM475 324h105v649h-105v-649z" />
<glyph unicode="r" d="M53 0v1298h738q80 0 145 -51t65 -112v-406q-4 -23 -16 -39q-27 -39 -88 -41q88 -2 104 -82v-649h527v-324h-737q-80 0 -145.5 51.5t-65.5 110.5v731h-105v-487h-422zM475 811h105v162h-105v-162z" />
<glyph unicode="s" d="M53 162v244h422v-82h105v163h-316q-80 0 -145.5 50.5t-65.5 111.5v486q0 61 65.5 112t145.5 51h527q80 0 145 -51t65 -112v-242h-421v80h-105v-162h316q80 0 145 -51t65 -111v-487q0 -61 -65.5 -111.5t-144.5 -50.5h-527q-80 0 -145.5 50t-65.5 112z" />
<glyph unicode="t" horiz-adv-x="1124" d="M18 893v324h105v81h422v-81h526v-324h-526v-569h104v487h422v-649q0 -61 -65.5 -111.5t-145.5 -50.5h-526q-80 0 -145.5 50t-65.5 112v731h-105z" />
<glyph unicode="u" d="M53 162v1136h422v-974h105v974h421v-1136q0 -61 -65.5 -111.5t-144.5 -50.5h-527q-80 0 -145.5 50t-65.5 112z" />
<glyph unicode="v" horiz-adv-x="1116" d="M35 1298h422l106 -731l105 731h422l-211 -1298h-633z" />
<glyph unicode="w" horiz-adv-x="1732" d="M18 1298h422l105 -731l106 731h422l105 -731l106 731h422l-211 -1298h-528l-105 649l-106 -649h-527z" />
<glyph unicode="x" d="M53 0l285 649l-285 649h379l94 -217l97 217h378l-284 -649l284 -649h-378l-97 217l-94 -217h-379z" />
<glyph unicode="y" d="M53 -82h527v82h-316q-80 0 -145.5 50t-65.5 112v1136h422v-974h105v974h421v-1542q0 -59 -65.5 -110.5t-144.5 -51.5h-738v324z" />
<glyph unicode="z" d="M53 0v324l443 649h-443v325h948v-325l-442 -649h442v-324h-948z" />
<glyph unicode="&#xad;" horiz-adv-x="632" d="M53 487v324h527v-324h-527z" />
<glyph unicode="&#x2000;" horiz-adv-x="811" />
<glyph unicode="&#x2001;" horiz-adv-x="1622" />
<glyph unicode="&#x2002;" horiz-adv-x="811" />
<glyph unicode="&#x2003;" horiz-adv-x="1622" />
<glyph unicode="&#x2004;" horiz-adv-x="540" />
<glyph unicode="&#x2005;" horiz-adv-x="405" />
<glyph unicode="&#x2006;" horiz-adv-x="270" />
<glyph unicode="&#x2007;" horiz-adv-x="270" />
<glyph unicode="&#x2008;" horiz-adv-x="202" />
<glyph unicode="&#x2009;" horiz-adv-x="324" />
<glyph unicode="&#x200a;" horiz-adv-x="90" />
<glyph unicode="&#x2010;" horiz-adv-x="632" d="M53 487v324h527v-324h-527z" />
<glyph unicode="&#x2011;" horiz-adv-x="632" d="M53 487v324h527v-324h-527z" />
<glyph unicode="&#x2012;" horiz-adv-x="632" d="M53 487v324h527v-324h-527z" />
<glyph unicode="&#x2013;" horiz-adv-x="1129" d="M53 487v324h1024v-324h-1024z" />
<glyph unicode="&#x2014;" horiz-adv-x="2153" d="M53 487v324h2048v-324h-2048z" />
<glyph unicode="&#x2018;" horiz-adv-x="526" d="M53 893v405h422v-325h-211v-80h211v-164h-211q-80 0 -145.5 51t-65.5 113z" />
<glyph unicode="&#x2019;" horiz-adv-x="526" d="M53 729v164h211v80h-211v325h422v-405q0 -61 -66.5 -112.5t-144.5 -51.5h-211z" />
<glyph unicode="&#x201a;" horiz-adv-x="2002" />
<glyph unicode="&#x201c;" d="M53 729v406q0 61 65.5 112t145.5 51h211v-163h-211v-80h211v-326h-422zM580 729v406q0 61 65.5 112t145.5 51h210v-163h-210v-80h210v-326h-421z" />
<glyph unicode="&#x201d;" d="M53 729v164h211v80h-211v325h422v-405q0 -61 -66.5 -112.5t-144.5 -51.5h-211zM580 729v164h211v80h-211v325h421v-405q0 -61 -65.5 -112.5t-144.5 -51.5h-211z" />
<glyph unicode="&#x2026;" horiz-adv-x="1581" d="M53 0v324h422v-324h-422zM580 0v324h421v-324h-421zM1108 0v324h420v-324h-420z" />
<glyph unicode="&#x202f;" horiz-adv-x="324" />
<glyph unicode="&#x205f;" horiz-adv-x="405" />
<glyph unicode="&#xe000;" horiz-adv-x="1300" d="M0 0v1300h1300v-1300h-1300z" />
</font>
</defs>
</svg>
